<?xml version="1.0" encoding="UTF-8"?><svg xmlns="http://www.w3.org/2000/svg" xmlns:xlink="http://www.w3.org/1999/xlink" viewBox="0 0 50 50" version="1.1"><path d="M25 18.82L28.508 7H46v9h-3v17h3v8H28.727l-.051-4.027L27.5 41h-7L19 35.855V41H4v-8h2.926l.004-.008.008-.008.003-.011.008-.008.016-.024.004-.011.008-.008.007-.024.008-.011.004-.008.004-.012V16H4V7h17.492zM6 9v5h1l.117.004.113.004.114.008.054.004.051.007.055.008.05.004.051.012.051.008.047.007.05.012.142.035.043.012.046.016.043.015.04.016.042.015.04.02.042.02.04.02.035.019.039.02.07.046.035.027.031.024.036.027.062.055.027.031.032.031.054.063.024.035.027.035.024.035.02.04.046.078.02.042.019.04.016.046.02.043.03.094.012.047.016.05.011.052.008.054.012.055.016.11.015.117.004.058.004.063v.066l.004.063v17.214l-.004.028v.03l-.008.063-.004.036-.007.03-.016.071-.008.04-.023.073-.024.079-.015.039-.012.043-.016.039-.02.043-.015.039-.058.129-.024.039-.07.129-.028.043-.027.039-.055.086-.03.039-.028.043-.031.039-.036.039-.03.039-.071.078-.074.074-.079.07-.042.036-.04.03-.085.063-.047.032-.043.027-.094.055-.05.023-.048.023-.101.04-.055.02-.164.046-.059.012-.054.007-.059.008-.062.008-.059.004H6v4h11v-4h-2V15l7 24h4l7-24v20h-2.352l.051 4H44v-4h-1.566l-.043-.004h-.043l-.043-.008-.043-.004-.043-.007-.04-.004-.042-.012-.04-.008-.077-.023-.036-.016-.039-.012-.035-.015-.035-.02-.035-.015-.07-.04-.032-.019-.125-.094-.027-.023-.031-.028-.028-.027-.027-.031-.023-.028-.028-.03-.023-.032-.028-.031-.023-.032-.023-.035-.02-.035-.023-.035-.02-.035-.02-.04-.019-.034-.04-.078-.015-.043-.015-.04-.016-.042-.016-.04-.015-.042-.012-.047-.016-.043-.011-.043-.012-.047-.008-.047-.011-.047-.008-.047-.008-.05-.012-.047-.004-.051-.008-.047-.003-.055-.008-.05-.004-.051v-.051l-.004-.055-.004-.05V15.925l.004-.074v-.075l.004-.07.008-.066.004-.067.007-.066.016-.125.035-.176.012-.055.015-.054.032-.102.015-.047.04-.094.019-.043.047-.085.02-.04.027-.039.023-.039.055-.07.054-.062.063-.063.063-.055.035-.027.105-.07.04-.02.034-.02.04-.023.042-.015.04-.02.085-.031.043-.012.043-.016.043-.011.094-.024.047-.008.05-.007.048-.012.05-.008.051-.004.05-.008.052-.003.105-.008.113-.008.11-.004H44V9H30l-5 16.852L20 9zm23.832 24H31v-4zM17 33h1.168L17 29z" fill-rule="evenodd" id="surface1"/><metadata><rdf:RDF xmlns:rdf="http://www.w3.org/1999/02/22-rdf-syntax-ns#" xmlns:rdfs="http://www.w3.org/2000/01/rdf-schema#" xmlns:dc="http://purl.org/dc/elements/1.1/"><rdf:Description about="https://iconscout.com/legal#licenses" dc:title="medium,old" dc:description="medium,old" dc:publisher="Iconscout" dc:date="2017-12-09" dc:format="image/svg+xml" dc:language="en"><dc:creator><rdf:Bag><rdf:li>Icons8</rdf:li></rdf:Bag></dc:creator></rdf:Description></rdf:RDF></metadata></svg>